# xmcd
#
# Track frame offsets: 
#        150
#        23387
#        48502
#        69952
#        89302
#        107915
#        135250
#        156107
#        171632
#        185957
#
# Disc length: 2688 seconds
#
# Revision: 2
# Processed by: cddbd v1.5.2PL0 Copyright (c) Steve Scherf et al.
# Submitted via: ExactAudioCopy v0.99pb5
#
DISCID=810a7e0a
DTITLE=Renato Sellani and Danilo Rea - Amapola
DYEAR=2008
DGENRE=Jazz
TTITLE0=My Foolish Heart
TTITLE1=My Funny Valentine
TTITLE2=Mi Sono Innamorato Di Te - Autumn Leaves
TTITLE3=Volare
TTITLE4=Quando
TTITLE5=Once Upon A Summertime
TTITLE6=Afternoon In Paris
TTITLE7=Amapola
TTITLE8=Wave
TTITLE9=You Never Told Me
EXTD=YEAR: 2008
EXTT0=
EXTT1=
EXTT2=
EXTT3=
EXTT4=
EXTT5=
EXTT6=
EXTT7=
EXTT8=
EXTT9=
PLAYORDER=
